<?xml version="1.0" encoding="UTF-8" standalone="no"?>
<svg
   xmlns:dc="http://purl.org/dc/elements/1.1/"
   xmlns:cc="http://creativecommons.org/ns#"
   xmlns:rdf="http://www.w3.org/1999/02/22-rdf-syntax-ns#"
   xmlns:svg="http://www.w3.org/2000/svg"
   xmlns="http://www.w3.org/2000/svg"
   xmlns:sodipodi="http://sodipodi.sourceforge.net/DTD/sodipodi-0.dtd"
   xmlns:inkscape="http://www.inkscape.org/namespaces/inkscape"
   width="1024mm"
   height="1024mm"
   viewBox="0 0 1024 1024"
   version="1.1"
   id="svg2003"
   inkscape:version="1.0.2 (e86c8708, 2021-01-15)"
   sodipodi:docname="Icon.svg"
   inkscape:export-filename="/Users/sergio/bitmap.png"
   inkscape:export-xdpi="25.4"
   inkscape:export-ydpi="25.4">
  <defs
     id="defs1997" />
  <sodipodi:namedview
     id="base"
     pagecolor="#ffffff"
     bordercolor="#666666"
     borderopacity="1.0"
     inkscape:pageopacity="0.0"
     inkscape:pageshadow="2"
     inkscape:zoom="0.14381796"
     inkscape:cx="1992.4701"
     inkscape:cy="1971.1036"
     inkscape:document-units="mm"
     inkscape:current-layer="layer1"
     inkscape:document-rotation="0"
     showgrid="false"
     inkscape:window-width="1252"
     inkscape:window-height="847"
     inkscape:window-x="0"
     inkscape:window-y="25"
     inkscape:window-maximized="0" />
  <metadata
     id="metadata2000">
    <rdf:RDF>
      <cc:Work
         rdf:about="">
        <dc:format>image/svg+xml</dc:format>
        <dc:type
           rdf:resource="http://purl.org/dc/dcmitype/StillImage" />
        <dc:title></dc:title>
      </cc:Work>
    </rdf:RDF>
  </metadata>
  <g
     inkscape:label="Layer 1"
     inkscape:groupmode="layer"
     id="layer1"
     transform="translate(149.90604,55.886921)">
    <rect
       style="fill:#faa12f;stroke-width:0.264583"
       id="rect2566"
       width="1024"
       height="1024"
       x="-149.90604"
       y="-55.886921" />
    <g
       id="g843"
       transform="matrix(0.24242424,0,0,-0.24242424,93.104875,856.11308)"
       style="fill:#ffffff">
      <path
         d="m 2201.94,1282.46 -6.31,31.64 -31.65,6.36 c -58.4,11.75 -118.3,17.52 -178.86,17.52 -256.14,-0.09 -524.25,-103.29 -739.87,-303.1 v 404.52 c 29.98,1.04 56.96,2.18 76.68,2.16 2.32,0.02 4.59,-0.02 6.79,-0.07 h 1.76 c 77.36,1.33 156.47,17.25 235.32,45.33 l 1.41,0.52 1.08,0.44 c 155.03,65.08 273.65,183.84 352.46,329.23 78.91,145.52 119.05,317.97 119.1,495.28 -0.01,107.35 -14.74,216.56 -44.96,322.79 -67.69,237.58 -202.42,419.72 -357.11,528.08 l -64.41,45.07 -11.27,-77.78 c -6.41,-45.05 -22.37,-99.27 -45.25,-159.51 -27.66,41.16 -57.01,78.79 -87.6,112.13 -29.45,-32.1 -57.73,-68.27 -84.48,-107.65 -58.66,108.86 -126.23,205.65 -199.49,285.67 l -35.68,38.91 -35.71,-38.91 c -73.25,-80.02 -140.824,-176.8 -199.488,-285.65 -26.738,39.36 -55.015,75.53 -84.468,107.63 -30.571,-33.32 -59.914,-70.94 -87.551,-112.07 -22.91,60.09 -38.965,114.19 -45.274,159.43 l -11.3,77.81 -64.395,-45.06 c -154.695,-108.37 -289.422,-290.51 -357.105,-528.1 -30.227,-106.21 -45,-215.45 -45,-322.81 0.039,-177.31 40.183,-349.74 119.089,-495.26 78.809,-145.38 197.442,-264.15 352.481,-329.21 l 1.328,-0.53 1.152,-0.41 c 78.868,-28.14 157.996,-44.05 235.371,-45.37 h 1.739 c 2.207,0.05 4.48,0.09 6.828,0.09 19.723,0.01 46.668,-1.13 76.637,-2.17 v -404.53 c -215.614,199.8 -483.77,303.01 -739.891,303.1 -60.574,0 -120.48,-5.77 -178.8477,-17.52 l -31.6211,-6.36 -6.3164,-31.64 C 5.71484,1224.66 0,1165.37 0,1105.35 0.0898438,836.34 114.453,554.055 335.52,333.645 556.191,113.789 838.367,0.105469 1107.29,0 c 0.76,0 1.52,0.0273438 2.29,0.0273438 0.76,0 1.53,-0.0273438 2.3,-0.0273438 268.91,0.105469 551.12,113.789 771.78,333.645 221.03,220.425 335.41,502.71 335.5,771.745 -0.02,59.98 -5.69,119.27 -17.22,177.07 z M 1334.88,125.32 c -16.68,-4.226 -33.38,-7.965 -50.08,-11.257 -57.95,-11.418 -115.91,-17.1997 -172.92,-17.1763 -0.77,0 -1.53,0.0274 -2.3,0.0391 -9.13,0.0273 -18.21,0.2695 -27.28,0.5742 -1.65,0.0508 -3.28,0.0664 -4.94,0.1289 -31.42,1.2656 -62.5,4.2731 -93.051,9.0901 -0.93,5.898 -1.633,11.867 -2.422,17.801 -4.719,35.48 -7.219,71.566 -7.219,108.07 -0.039,94.859 15.984,192.383 47.702,288.125 13.36,40.34 29.49,80.371 48.43,119.754 11.84,24.597 24.77,48.945 38.77,72.969 9.11,15.605 18.69,31.066 28.71,46.375 3.33,5.089 6.67,10.187 10.1,15.253 6.42,9.446 13.07,18.801 19.84,28.125 9.21,12.676 18.74,25.227 28.6,37.629 15.37,19.309 31.49,38.274 48.43,56.825 11.77,12.882 23.89,25.57 36.42,38.046 203.1,202.549 461.88,305.489 703.45,305.419 43.2,0.02 85.85,-3.27 127.55,-9.85 6.41,-41.15 9.62,-83.24 9.62,-125.87 0.09,-241.523 -103.41,-500.292 -307,-703.124 C 1673.93,261.309 1505.61,168.645 1334.88,125.32 Z M 403.895,402.266 C 200.293,605.098 96.7969,863.855 96.875,1105.35 c 0,42.64 3.215,84.75 9.641,125.92 41.675,6.57 84.312,9.86 127.527,9.84 241.57,0.07 500.344,-102.87 703.457,-305.419 12.52,-12.476 24.668,-25.183 36.434,-38.062 16.945,-18.566 33.066,-37.539 48.436,-56.859 9.86,-12.379 19.36,-24.911 28.56,-37.579 -9.95,-15.515 -19.47,-31.187 -28.56,-47.007 -17.75,-30.864 -33.913,-62.258 -48.436,-94.055 -63.661,-139.375 -96.09,-286.336 -96.141,-429.539 0,-36.074 2.324,-71.848 6.484,-107.27 C 713.555,168.652 545.234,261.309 403.895,402.266 Z M 687.039,1577.7 c -131.551,55.68 -233.418,156.59 -303.504,285.52 -70.207,129.21 -107.414,286.37 -107.351,449.05 0,98.48 13.574,198.93 41.277,296.3 52.656,185.3 149.836,331.61 260.742,429.04 14.656,-53.52 35.996,-110.72 61.902,-170.91 15.188,-35.26 31.915,-71.54 49.844,-108.73 16.059,-33.18 33.149,-67.08 50.86,-101.4 -17.938,-57.33 -33.465,-116.3 -46.168,-176.57 -25.332,-120.48 -37.434,-236.29 -37.434,-344.21 0.059,-131.92 18.035,-252.02 52.773,-354.7 7.149,-21.14 14.961,-41.61 23.536,-61.21 31.211,-71.4 72.293,-132.81 122.929,-179.74 -54.597,4.39 -111.457,16.98 -169.406,37.56 z m 422.551,1576.99 c 64.58,-77.85 124.52,-171.6 176.21,-276.34 33.03,-66.89 62.68,-138.25 87.92,-213.01 7.21,-21.36 14.01,-43.04 20.48,-64.92 6.61,-22.35 12.77,-44.96 18.57,-67.76 6.07,-24 11.86,-48.15 16.99,-72.6 24.01,-114.32 35.34,-223.61 35.32,-324.33 0.08,-142.96 -23,-268.44 -63.5,-365.96 -1.52,-3.66 -3.02,-7.37 -4.59,-10.95 -25.21,-57.53 -56.26,-104.2 -91.76,-139.53 -18.02,-17.95 -37.18,-33.01 -57.35,-44.99 -0.87,-0.51 -1.75,-0.98 -2.63,-1.48 -7.39,-4.27 -14.88,-8.23 -22.52,-11.71 -8.69,-3.23 -17.31,-6.06 -25.91,-8.61 -15.63,-4.65 -31.12,-8.18 -46.41,-10.53 -0.68,-0.11 -1.35,-0.17 -2.03,-0.27 -13.11,-1.93 -26.09,-3.07 -38.93,-3.3 -12.74,0.24 -25.63,1.37 -38.65,3.29 -0.67,0.11 -1.34,0.17 -2.02,0.27 -15.28,2.35 -30.77,5.87 -46.41,10.52 -8.5,2.52 -17.06,5.32 -25.651,8.53 -7.735,3.49 -15.313,7.47 -22.785,11.81 -0.868,0.5 -1.754,0.95 -2.618,1.47 -20.183,11.98 -39.351,27.06 -57.382,45.02 -35.489,35.31 -66.5,81.93 -91.688,139.39 -1.594,3.62 -3.105,7.37 -4.641,11.09 -40.503,97.52 -63.582,223.02 -63.523,366 0,100.67 11.309,209.97 35.344,324.28 5.113,24.43 10.894,48.56 16.98,72.53 5.789,22.85 11.961,45.49 18.574,67.86 6.454,21.84 13.235,43.45 20.43,64.77 25.242,74.8 54.922,146.21 87.969,213.15 51.687,104.73 111.631,198.46 176.211,276.31 z m 792.13,-546.13 c 27.69,-97.36 41.28,-197.81 41.28,-296.27 0.02,-162.69 -37.18,-319.85 -107.39,-449.09 -70.13,-128.96 -172.04,-229.92 -303.64,-285.6 -57.91,-20.51 -114.67,-33.08 -169.22,-37.46 50.66,46.96 91.76,108.41 122.98,179.85 8.55,19.58 16.35,40 23.48,61.1 34.72,102.67 52.68,222.75 52.75,354.64 -0.02,107.94 -12.12,223.77 -37.43,344.25 -12.71,60.3 -28.25,119.32 -46.2,176.69 37.54,72.65 72.03,143.09 100.78,209.96 25.89,60.19 47.15,117.53 61.8,171.03 110.93,-97.43 208.13,-243.75 260.81,-429.1 z M 1070.8,1438.01 c 13.13,0.23 26.05,0.63 38.72,1.4 12.73,-0.78 25.69,-1.18 38.86,-1.42 V 934.188 c -13.43,-15.692 -26.35,-31.622 -38.81,-47.77 -12.44,16.141 -25.35,32.066 -38.77,47.742 v 503.85"
         style="fill:#ffffff;fill-opacity:1;fill-rule:nonzero;stroke:none"
         id="path845" />
    </g>
  </g>
</svg>
